<svg xmlns="http://www.w3.org/2000/svg" viewBox="0 0 259.09 66.12"><defs><style>.cls-1{font-size:60px;fill:#be1e2d;font-family:Hamish;}.cls-2{fill:#006838;}.cls-3{fill:#754c29;}</style></defs><g id="Layer_2" data-name="Layer 2"><g id="Layer_1-2" data-name="Layer 1"><text class="cls-1" transform="translate(13.51 50.4)">apple day</text><path class="cls-2" d="M18.85,16.22S19,9.06,13.21,6.86c0,0-9.63.83-13.21-1.93a9.59,9.59,0,0,0,6.33,7.44C12,14.29,17.2,13.05,18.85,16.22Z"/><path class="cls-2" d="M23,12.61s3.6,2.46,6.65.25c0,0,2.8-5.18,5.4-6.08a5.83,5.83,0,0,0-5.9.74C26.31,9.75,25.19,12.83,23,12.61Z"/><path class="cls-3" d="M19.53,17.87a9.06,9.06,0,0,0,1-5.36c-.4-3,1.11-2.27,1.11-2.27s2.23-1.55,1,1.62.36,5,.36,5Z"/></g></g></svg>